#!OML:ASF F:\VICON\USERDATA\INSTALL\rory3\rory3.ASF
:FULLY-SPECIFIED
:DEGREES
1075
root 2.84405 21.2546 2.17381 -168.504 -9.78159 178.208
lowerback 15.9009 -1.91135 -1.22112
upperback 3.13462 -3.01084 2.50729
thorax -5.36323 -1.62772 3.97291
lowerneck -13.1694 3.14224 -7.97188
upperneck 39.6613 1.01361 2.97219
head 16.2958 -1.82266 2.48766
rclavicle 4.11484e-014 -2.50469e-014
rhumerus 35.9837 29.5453 -67.836
rradius 78.1318
rwrist 46.4964
rhand -12.0354 -3.64515
rfingers 7.12502
rthumb 14.0229 -33.1521
lclavicle 4.11484e-014 -2.50469e-014
lhumerus 10.7029 -12.5366 86.1449
lradius 52.4186
lwrist -33.4962
lhand -28.7348 28.6849
lfingers 7.12502
lthumb -2.09554 58.6543
rfemur -49.7267 1.93777 23.397
rtibia 60.8201
rfoot -24.1577 -1.15609
rtoes 8.16064
lfemur -28.5788 -1.67775 -19.405
ltibia 25.8467
lfoot 13.4194 -7.72042
ltoes -16.458
1076
root 2.82522 21.2009 2.19816 -168.566 -9.51564 178.231
lowerback 15.92 -1.78312 -1.18785
upperback 3.09943 -2.83596 2.29679
thorax -5.43659 -1.53672 3.69764
lowerneck -12.7907 3.09085 -7.39832
upperneck 39.5197 0.754933 2.84598
head 16.1541 -1.8582 2.28058
rclavicle -1.39149e-015 1.94809e-014
rhumerus 36.2705 28.9962 -67.6922
rradius 77.7428
rwrist 46.2531
rhand -12.2704 -3.39144
rfingers 7.12502
rthumb 13.7964 -32.914
lclavicle -1.39149e-015 1.94809e-014
lhumerus 11.1942 -12.8423 85.905
lradius 51.4879
lwrist -33.2054
lhand -29.0465 27.1279
lfingers 7.12502
lthumb -2.39657 57.0942
rfemur -50.1187 1.85746 23.4528
rtibia 61.4698
rfoot -24.4083 -0.870591
rtoes 8.9566
lfemur -28.3116 -1.94237 -19.4498
ltibia 25.5375
lfoot 13.6167 -7.70964
ltoes -14.3407
1077
root 2.80479 21.1383 2.2239 -168.6 -9.21065 178.283
lowerback 15.9839 -1.64458 -1.15505
upperback 3.01417 -2.64268 2.11076
thorax -5.58586 -1.43358 3.44886
lowerneck -12.5454 3.03647 -6.87377
upperneck 39.4936 0.525531 2.66534
head 16.1035 -1.90679 2.06545
rclavicle 4.21423e-014 -7.95139e-015
rhumerus 36.5123 28.5468 -67.5581
rradius 77.3936
rwrist 45.8373
rhand -12.3326 -3.42076
rfingers 7.12502
rthumb 13.7365 -32.9473
lclavicle 4.21423e-014 -7.95139e-015
lhumerus 11.5675 -13.2301 85.6613
lradius 50.9401
lwrist -33.7623
lhand -27.8832 28.5141
lfingers 7.12502
lthumb -1.27315 58.4901
rfemur -50.6061 1.77852 23.5348
rtibia 62.2212
rfoot -24.653 -0.483997
rtoes 9.92749
lfemur -28.1408 -2.09353 -19.5126
ltibia 25.2558
lfoot 13.6932 -7.60968
ltoes -13.7557
1078
root 2.78624 21.0667 2.24949 -168.709 -8.88173 178.28
lowerback 16.1119 -1.48072 -1.2571
upperback 3.00678 -2.45041 1.94231
thorax -5.67924 -1.3355 3.29537
lowerneck -12.4437 2.9302 -6.56439
upperneck 39.4735 0.215104 2.72917
head 16.0906 -1.98302 1.9857
rclavicle -9.54166e-015 -3.97569e-016
rhumerus 36.8496 28.1121 -67.3037
rradius 77.177
rwrist 45.3826
rhand -12.2105 -3.61593
rfingers 7.12502
rthumb 13.8542 -33.1345
lclavicle -9.54166e-015 -3.97569e-016
lhumerus 11.9033 -13.5521 85.4406
lradius 50.506
lwrist -34.1992
lhand -25.8282 30.839
lfingers 7.12502
lthumb 0.711698 60.8175
rfemur -51.1492 1.72151 23.5879
rtibia 63.074
rfoot -24.7271 -0.326053
rtoes 9.2784
lfemur -27.9414 -2.17197 -19.6525
ltibia 24.9667
lfoot 13.7466 -7.46968
ltoes -14.9308
1079
root 2.76833 21.0087 2.27606 -168.776 -8.58392 178.35
lowerback 16.1148 -1.31676 -1.22769
upperback 3.03 -2.23719 1.78604
thorax -5.67704 -1.2323 3.06855
lowerneck -12.3481 2.81374 -6.30794
upperneck 39.4411 -0.125647 2.89119
head 16.0731 -2.0638 1.95417
rclavicle 3.29983e-014 -1.47101e-014
rhumerus 37.1398 27.5965 -67.0643
rradius 76.9928
rwrist 44.999
rhand -12.1466 -3.73314
rfingers 7.12502
rthumb 13.9157 -33.2475
lclavicle 3.29983e-014 -1.47101e-014
lhumerus 12.2517 -14.0281 85.1709
lradius 50.2801
lwrist -34.2001
lhand -25.9698 30.2479
lfingers 7.12502
lthumb 0.574887 60.2269
rfemur -51.7476 1.68237 23.7193
rtibia 63.9219
rfoot -24.6153 -0.287414
rtoes 7.99686
lfemur -27.7993 -2.26627 -19.68
ltibia 24.6821
lfoot 13.715 -7.24365
ltoes -15.7081
1080
root 2.74756 20.9618 2.30282 -168.831 -8.17976 178.51
lowerback 16.0742 -1.14141 -1.02723
upperback 3.03461 -1.97973 1.58229
thorax -5.6792 -1.10914 2.68397
lowerneck -12.229 2.71975 -5.97023
upperneck 39.4641 -0.454921 2.98485
head 16.0787 -2.14476 1.87876
rclavicle -3.35946e-014 1.03368e-014
rhumerus 37.3535 27.0366 -66.9929
rradius 76.7373
rwrist 44.68
rhand -12.1763 -3.68181
rfingers 7.12502
rthumb 13.8871 -33.1981
lclavicle -3.35946e-014 1.03368e-014
lhumerus 12.643 -14.8094 84.6721
lradius 50.1529
lwrist -33.796
lhand -27.529 27.7406
lfingers 7.12502
lthumb -0.931 57.7184
rfemur -52.2901 1.762 23.8906
rtibia 64.721
rfoot -24.5007 -0.0878201
rtoes 7.8986
lfemur -27.5876 -2.37893 -19.5849
ltibia 24.3127
lfoot 13.6549 -6.7196
ltoes -15.6472
1081
root 2.726 20.9126 2.32736 -168.877 -7.70649 178.755
lowerback 15.9974 -0.959639 -0.770639
upperback 3.03896 -1.70404 1.39183
thorax -5.65992 -0.978399 2.27713
lowerneck -12.0958 2.61636 -5.57683
upperneck 39.4216 -0.745514 2.95586
head 16.0442 -2.21222 1.74635
rclavicle -5.1684e-015 2.22639e-014
rhumerus 37.5771 26.5089 -66.9856
rradius 76.4452
rwrist 44.4295
rhand -12.1149 -3.67902
rfingers 7.12502
rthumb 13.9463 -33.1913
lclavicle -5.1684e-015 2.22639e-014
lhumerus 12.9876 -15.5718 84.1313
lradius 50.2945
lwrist -33.7164
lhand -27.8424 26.5046
lfingers 7.12502
lthumb -1.23369 56.4807
rfemur -52.8487 1.94541 24.1229
rtibia 65.4851
rfoot -24.3759 0.0970539
rtoes 8.14351
lfemur -27.3263 -2.53391 -19.3693
ltibia 23.8123
lfoot 13.7901 -6.00789
ltoes -15.4154
1082
root 2.70582 20.8669 2.34834 -169.016 -7.16705 178.982
lowerback 15.9935 -0.735162 -0.615764
upperback 3.07576 -1.39403 1.23634
thorax -5.6392 -0.831885 1.96048
lowerneck -11.9322 2.54397 -5.28851
upperneck 39.3081 -0.962152 3.00826
head 15.959 -2.24745 1.68173
rclavicle 1.20265e-014 -2.38542e-015
rhumerus 37.7816 25.9759 -66.948
rradius 76.191
rwrist 44.2727
rhand -11.9424 -3.57002
rfingers 7.12502
rthumb 14.1125 -33.0708
lclavicle 1.20265e-014 -2.38542e-015
lhumerus 13.1729 -16.2218 83.7892
lradius 50.7358
lwrist -33.8908
lhand -27.4882 26.8475
lfingers 7.12502
lthumb -0.891586 56.8254
rfemur -53.301 2.28343 24.2922
rtibia 66.2078
rfoot -24.1857 0.25343
rtoes 8.01445
lfemur -26.9348 -2.69206 -19.1578
ltibia 23.2951
lfoot 13.8846 -5.41843
ltoes -16.0672
1083
root 2.68933 20.8213 2.39302 -169.277 -7.30276 179.241
lowerback 16.4808 -0.762168 -0.169069
upperback 3.04572 -1.36676 1.12475
thorax -5.94904 -0.826978 1.59765
lowerneck -11.8325 2.51837 -4.95242
upperneck 39.3264 -1.15164 3.05668
head 15.956 -2.2757 1.61024
rclavicle 7.95139e-016 9.34288e-015
rhumerus 38.0615 25.4455 -66.9628
rradius 75.8217
rwrist 44.1324
rhand -11.7242 -3.46204
rfingers 7.12502
rthumb 14.3228 -32.948
lclavicle 7.95139e-016 9.34288e-015
lhumerus 13.2452 -16.8477 83.4517
lradius 51.3375
lwrist -33.7304
lhand -27.2078 27.173
lfingers 7.12502
lthumb -0.62079 57.1519
rfemur -53.7091 2.09965 24.5405
rtibia 66.9596
rfoot -23.9985 0.251303
rtoes 8.06331
lfemur -26.6017 -3.56273 -18.7819
ltibia 22.8201
lfoot 14.0733 -4.74121
ltoes -16.5576
1084
root 2.66208 20.7694 2.39702 -169.268 -5.95399 179.39
lowerback 16.1223 -0.286492 -0.236631
upperback 3.05025 -0.76067 0.819679
thorax -5.76895 -0.52895 1.17707
lowerneck -11.696 2.51759 -4.48619
upperneck 39.4955 -1.34581 2.945
head 16.0218 -2.32598 1.44148
rclavicle 9.83984e-015 -3.18055e-015
rhumerus 38.1979 24.9276 -67.2525
rradius 75.389
rwrist 44.0851
rhand -11.5721 -3.30895
rfingers 7.12502
rthumb 14.4693 -32.7845
lclavicle 9.83984e-015 -3.18055e-015
lhumerus 13.2869 -17.3651 83.049
lradius 51.8004
lwrist -33.3449
lhand -27.3701 26.7965
lfingers 7.12502
lthumb -0.777561 56.7748
rfemur -54.1745 3.10868 24.5138
rtibia 67.6628
rfoot -23.7891 0.674955
rtoes 8.86365
lfemur -26.2091 -3.07964 -18.7592
ltibia 22.3954
lfoot 13.9102 -3.98259
ltoes -16.7068
1085
root 2.63909 20.7172 2.42215 -169.254 -5.4675 179.611
lowerback 16.1087 -0.137654 0.0359603
upperback 2.96211 -0.519343 0.609211
thorax -5.86409 -0.411799 0.749796
lowerneck -11.5374 2.48271 -4.04497
upperneck 39.6051 -1.54834 2.77847
head 16.0505 -2.38646 1.25209
rclavicle 1.50082e-014 -9.93923e-015
rhumerus 38.3506 24.4477 -67.4419
rradius 75.0261
rwrist 43.9703
rhand -11.477 -3.17046
rfingers 7.12502
rthumb 14.5609 -32.6394
lclavicle 1.50082e-014 -9.93923e-015
lhumerus 13.312 -17.7513 82.7257
lradius 52.1658
lwrist -32.8721
lhand -28.0347 26.6119
lfingers 7.12502
lthumb -1.41945 56.5869
rfemur -54.7437 3.37103 24.6556
rtibia 68.3804
rfoot -23.5268 1.00505
rtoes 8.87338
lfemur -26.1136 -3.35322 -18.5256
ltibia 22.0527
lfoot 13.9105 -3.14603
ltoes -16.0812
